<?xml version="1.0" encoding="UTF-8" standalone="no"?>
<!-- Generator: Adobe Illustrator 15.0.0, SVG Export Plug-In . SVG Version: 6.00 Build 0)  -->

<svg
   xmlns:dc="http://purl.org/dc/elements/1.1/"
   xmlns:cc="http://creativecommons.org/ns#"
   xmlns:rdf="http://www.w3.org/1999/02/22-rdf-syntax-ns#"
   xmlns:svg="http://www.w3.org/2000/svg"
   xmlns="http://www.w3.org/2000/svg"
   xmlns:sodipodi="http://sodipodi.sourceforge.net/DTD/sodipodi-0.dtd"
   xmlns:inkscape="http://www.inkscape.org/namespaces/inkscape"
   version="1.1"
   id="Layer_1"
   x="0px"
   y="0px"
   width="512px"
   height="512px"
   viewBox="0 0 512 512"
   enable-background="new 0 0 512 512"
   xml:space="preserve"
   inkscape:version="0.91 r13725"
   sodipodi:docname="rss1.svg"><metadata
     id="metadata5788"><rdf:RDF><cc:Work
         rdf:about=""><dc:format>image/svg+xml</dc:format><dc:type
           rdf:resource="http://purl.org/dc/dcmitype/StillImage" /></cc:Work></rdf:RDF></metadata><defs
     id="defs5786" /><sodipodi:namedview
     pagecolor="#ffffff"
     bordercolor="#666666"
     borderopacity="1"
     objecttolerance="10"
     gridtolerance="10"
     guidetolerance="10"
     inkscape:pageopacity="0"
     inkscape:pageshadow="2"
     inkscape:window-width="1278"
     inkscape:window-height="1018"
     id="namedview5784"
     showgrid="false"
     inkscape:zoom="0.4609375"
     inkscape:cx="256"
     inkscape:cy="256"
     inkscape:window-x="1273"
     inkscape:window-y="0"
     inkscape:window-maximized="0"
     inkscape:current-layer="g5776" /><g
     id="g5776"
     style="fill:#000000;fill-opacity:1"><path
       d="M68.148,375.465c-37.598,0-68.147,30.667-68.147,68.038c0,37.577,30.55,67.901,68.147,67.901   c37.733,0,68.247-30.324,68.247-67.901C136.394,406.132,105.882,375.465,68.148,375.465z"
       id="path5778"
       style="fill:#2d7ee2;fill-opacity:1" /><path
       d="M0.078,173.965v98.129c63.892,0,123.979,24.986,169.229,70.255c45.192,45.16,70.141,105.518,70.141,169.651h98.561   C338.008,325.59,186.368,173.965,0.078,173.965z"
       id="path5780"
       style="fill:#2d7ee2;fill-opacity:1" /><path
       d="M0.195,0v98.178c227.89,0,413.379,185.668,413.379,413.822H512C512,229.765,282.373,0,0.195,0z"
       id="path5782"
       style="fill:#ff6600;fill-opacity:1" /></g></svg>